<svg width="386" height="73" viewBox="0 0 386 73" fill="none" xmlns="http://www.w3.org/2000/svg">
<path d="M59.9 21.0998V51.8999C59.9 52.0999 59.8 52.2998 59.6 52.2998L32.9 67.6998C32.8 67.7998 32.6 67.7998 32.4 67.6998L15 57.6999L19.8 54.8999C20 54.7999 20.1 54.7999 20.3 54.8999L32.7 62.0998L54.6 49.3999L54.9 49.2998V26.5998L37.2 36.8999L36.9 36.9998V38.9998L32.6 41.4998L28.4 38.9998V33.9998L32.7 31.4998L34.5 32.5998L57.4 19.2998L59.6 20.5998C59.8 20.7998 59.9 20.8998 59.9 21.0998Z" fill="white"/>
<path d="M42.9999 40.3001L47.7999 37.5001V45.1001L32.6999 53.8001L20.1999 46.6001L7.9999 53.6001L5.6999 52.3001C5.4999 52.2001 5.3999 52.0001 5.3999 51.9001V21.1001C5.3999 20.9001 5.4999 20.8001 5.6999 20.7001L32.3999 5.3001C32.5999 5.2001 32.7999 5.2001 32.8999 5.3001L50.3999 15.4001L45.5999 18.1001C45.3999 18.2001 45.1999 18.2001 45.0999 18.1001L32.5999 10.9001L10.7999 23.6001L10.4999 23.7001V46.5001L17.5999 42.4001V27.8001L32.6999 19.1001L38.9999 22.7001L34.2999 25.5001C34.0999 25.6001 33.8999 25.6001 33.7999 25.5001L32.6999 24.9001L22.5999 30.7001V42.3001L32.6999 48.1001L42.7999 42.3001V40.7001C42.6999 40.6001 42.7999 40.4001 42.9999 40.3001Z" fill="white"/>
<path d="M189.7 17.2002H185.3V25.0002H181.7V29.2002H185.3V44.2002C185.3 45.5002 185.5 46.6001 185.9 47.6001C186.3 48.6001 186.9 49.4001 187.6 50.1001C188.3 50.7001 189.2 51.2002 190.2 51.5002C191.1 51.8002 192.1 51.9002 193.2 51.9002C194.1 51.9002 194.8 51.8001 195.5 51.6001C196.2 51.5001 196.9 51.2002 197.6 50.9002L198.2 50.6001V46.2002L196.8 46.8001C196.2 47.1001 195.6 47.3002 195.1 47.4002C194.6 47.5002 194.1 47.6001 193.6 47.6001C192.4 47.6001 191.4 47.3001 190.7 46.8001C190.1 46.3001 189.7 45.3002 189.7 43.9002V29.1002H198.3V25.0002H189.7V17.2002Z" fill="white"/>
<path d="M116.2 42.8001C114.6 44.4001 112.9 45.7002 111.2 46.5002C109.6 47.3002 107.6 47.7002 105.3 47.7002C103.4 47.7002 101.7 47.3001 100.1 46.6001C98.4999 45.9001 97.0999 44.8001 95.8999 43.6001C94.6999 42.3001 93.7999 40.8001 93.0999 39.1001C92.3999 37.4001 92.0999 35.5002 92.0999 33.4002C92.0999 31.4002 92.3999 29.6002 93.0999 27.9002C93.7999 26.2002 94.6999 24.7002 95.8999 23.5002C97.0999 22.2002 98.4999 21.2002 100.1 20.5002C101.7 19.8002 103.4 19.4002 105.3 19.4002C106.5 19.4002 107.5 19.5002 108.5 19.8002C109.5 20.0002 110.4 20.4002 111.3 20.8002C112.2 21.2002 113 21.7002 113.7 22.2002C114.5 22.8002 115.2 23.4002 115.9 24.1002L116.6 24.8002L119.8 21.5002L119 20.8002C118.1 20.0002 117.2 19.2002 116.2 18.6002C115.3 17.9002 114.2 17.3002 113.1 16.8002C112 16.3002 110.8 15.9002 109.5 15.6002C108.2 15.3002 106.8 15.2002 105.2 15.2002C102.6 15.2002 100.2 15.7002 98.0999 16.7002C95.8999 17.6002 93.9999 19.0002 92.3999 20.7002C90.8999 22.3002 89.5999 24.3002 88.6999 26.5002C87.7999 28.7002 87.3999 31.1002 87.3999 33.7002C87.3999 36.2002 87.7999 38.6001 88.6999 40.8001C89.5999 43.0001 90.7999 45.0002 92.3999 46.7002C93.9999 48.3002 95.8999 49.6001 97.9999 50.6001C100.2 51.5001 102.5 52.0002 105.1 52.0002C106.6 52.0002 108.1 51.8002 109.4 51.5002C110.7 51.2002 111.9 50.8002 113.1 50.2002C114.2 49.7002 115.3 49.0001 116.3 48.3001C117.3 47.5001 118.3 46.7001 119.2 45.8001L119.9 45.1001L116.8 42.1001L116.2 42.8001Z" fill="white"/>
<path d="M174.7 27.6C173.8 26.6 172.6 25.8 171.3 25.3C170 24.7 168.4 24.5 166.8 24.5C164.4 24.5 162.3 25.1 160.8 26.2C160.2 26.7 159.6 27.2 159 27.7V25H154.6V51.5H159V36.3C159 35.2 159.2 34.1 159.5 33.2C159.9 32.2 160.4 31.4 161.1 30.7C161.8 30 162.6 29.5 163.5 29.1C164.4 28.7 165.4 28.5 166.5 28.5C168.7 28.5 170.4 29.1 171.5 30.5C172.7 31.8 173.3 33.6 173.3 35.9V51.4H177.7V35.4C177.7 33.8 177.5 32.3 177 31.1C176.4 29.8 175.7 28.5 174.7 27.6Z" fill="white"/>
<path d="M145.5 28.4999C144.3 27.2999 142.8 26.2999 141.2 25.5999C139.6 24.7999 137.7 24.3999 135.8 24.3999C133.8 24.3999 132 24.7999 130.4 25.4999C128.8 26.1999 127.3 27.1999 126 28.4999C124.8 29.7999 123.8 31.1999 123.2 32.8999C122.5 34.4999 122.2 36.2999 122.2 38.2999C122.2 40.0999 122.5 41.8999 123.2 43.5999C123.9 45.1999 124.8 46.6999 126 47.8999C127.2 49.0999 128.6 50.0999 130.3 50.8999C132 51.5999 133.8 51.9999 135.7 51.9999C137.6 51.9999 139.5 51.5999 141.2 50.8999C142.8 50.0999 144.3 49.0999 145.5 47.8999C146.7 46.5999 147.7 45.0999 148.3 43.4999C149 41.7999 149.3 40.0999 149.3 38.0999C149.3 36.1999 149 34.4999 148.3 32.7999C147.7 31.1999 146.7 29.6999 145.5 28.4999ZM144.8 38.2999C144.8 39.5999 144.6 40.8999 144.1 41.9999C143.7 43.1999 143 44.1999 142.2 44.9999C141.4 45.7999 140.5 46.4999 139.4 46.9999C137.3 47.9999 134.5 47.9999 132.2 46.9999C131.1 46.4999 130.1 45.7999 129.3 44.9999C128.5 44.0999 127.8 43.0999 127.4 41.9999C126.9 40.7999 126.7 39.4999 126.7 38.0999C126.7 36.7999 126.9 35.4999 127.3 34.3999C127.8 33.1999 128.4 32.1999 129.2 31.3999C130 30.4999 131 29.8999 132.1 29.3999C133.2 28.8999 134.4 28.5999 135.7 28.5999C137 28.5999 138.1 28.7999 139.2 29.2999C140.3 29.7999 141.3 30.4999 142.1 31.2999C142.9 32.1999 143.6 33.1999 144.1 34.3999C144.6 35.5999 144.8 36.8999 144.8 38.2999Z" fill="white"/>
<path d="M251.4 27.6C250.5 26.6 249.3 25.8 248 25.3C246.7 24.7 245.1 24.5 243.5 24.5C241.1 24.5 239 25.1 237.5 26.2C236.9 26.7 236.3 27.2 235.7 27.7V25H231.3V51.5H235.7V36.3C235.7 35.2 235.9 34.1 236.2 33.2C236.6 32.2 237.1 31.4 237.8 30.7C238.5 30 239.3 29.5 240.2 29.1C241.1 28.7 242.1 28.5 243.2 28.5C245.4 28.5 247.1 29.1 248.2 30.5C249.4 31.8 250 33.6 250 35.9V51.4H254.4V35.4C254.4 33.8 254.2 32.3 253.7 31.1C253.1 29.8 252.4 28.5 251.4 27.6Z" fill="white"/>
<path d="M351.2 15.6001L334.6 51.4001H339.4L343.7 42.0001H362.2L366.5 51.4001H371.4L354.8 15.6001H351.2ZM345.6 37.8001L352.9 21.8001L360.2 37.8001H345.6Z" fill="white"/>
<path d="M380.8 15.8999H376.3V51.4999H380.8V15.8999Z" fill="white"/>
<path d="M223.1 28.5C222.1 27.2 220.8 26.2 219.3 25.6C217.8 24.9 216.1 24.5 214.2 24.5C212.4 24.5 210.7 24.9 209.2 25.6C207.7 26.3 206.3 27.3 205.2 28.6C204.1 29.8 203.2 31.3 202.6 33C202 34.6 201.7 36.4 201.7 38.4C201.7 40.4 202 42.3 202.7 44C203.4 45.7 204.3 47.1 205.5 48.4C206.7 49.6 208.1 50.6 209.7 51.2C211.3 51.9 213 52.2 214.7 52.2C217.2 52.2 219.3 51.7 221 50.8C222.7 49.9 224.2 48.7 225.5 47.3L226.2 46.5L223.1 43.7L222.4 44.4C221.5 45.4 220.3 46.3 219.1 46.9C217.9 47.5 216.5 47.9 214.7 47.9C213.6 47.9 212.5 47.7 211.6 47.4C210.6 47 209.8 46.4 209 45.7C208.2 45 207.6 44 207 43C206.6 42.2 206.4 41.3 206.2 40.4H226.2L226.3 39.6C226.3 39.3 226.4 39.1 226.4 39V38.5C226.4 36.6 226.1 34.8 225.5 33.1C225 31.2 224.2 29.7 223.1 28.5ZM206.2 36.1C206.3 35.3 206.6 34.5 206.9 33.8C207.4 32.7 207.9 31.8 208.6 31.1C209.3 30.3 210.1 29.7 211.1 29.3C212 28.9 213 28.7 214.1 28.7C215.3 28.7 216.4 28.9 217.4 29.4C218.3 29.8 219.1 30.5 219.7 31.3C220.3 32.1 220.9 33 221.2 34C221.5 34.7 221.7 35.4 221.8 36.2H206.2V36.1Z" fill="white"/>
<path d="M314.1 28.4999C312.9 27.2999 311.4 26.2999 309.8 25.5999C308.2 24.7999 306.3 24.3999 304.4 24.3999C302.4 24.3999 300.6 24.7999 299 25.4999C297.4 26.1999 295.9 27.1999 294.6 28.4999C293.4 29.7999 292.4 31.1999 291.8 32.8999C291.1 34.4999 290.8 36.2999 290.8 38.2999C290.8 40.0999 291.1 41.8999 291.8 43.5999C292.5 45.1999 293.4 46.6999 294.6 47.8999C295.8 49.0999 297.2 50.0999 298.9 50.8999C300.6 51.5999 302.4 51.9999 304.3 51.9999C306.2 51.9999 308.1 51.5999 309.8 50.8999C311.4 50.0999 312.9 49.0999 314.1 47.8999C315.3 46.5999 316.3 45.0999 316.9 43.4999C317.6 41.8999 317.9 40.0999 317.9 38.0999C317.9 36.1999 317.6 34.4999 316.9 32.7999C316.2 31.1999 315.3 29.6999 314.1 28.4999ZM313.3 38.2999C313.3 39.5999 313.1 40.8999 312.6 41.9999C312.2 43.1999 311.5 44.1999 310.7 44.9999C309.9 45.7999 309 46.4999 307.9 46.9999C305.8 47.9999 303 47.9999 300.7 46.9999C299.6 46.4999 298.6 45.7999 297.8 44.9999C297 44.0999 296.3 43.0999 295.9 41.9999C295.4 40.7999 295.2 39.4999 295.2 38.0999C295.2 36.7999 295.4 35.4999 295.8 34.3999C296.3 33.1999 296.9 32.1999 297.7 31.3999C298.5 30.4999 299.5 29.8999 300.6 29.3999C301.7 28.8999 302.9 28.5999 304.2 28.5999C305.5 28.5999 306.6 28.7999 307.7 29.2999C308.8 29.7999 309.8 30.4999 310.6 31.2999C311.4 32.1999 312.1 33.1999 312.6 34.3999C313.1 35.5999 313.3 36.8999 313.3 38.2999Z" fill="white"/>
<path d="M281.1 28.4C280.4 27.6 279.6 26.9 278.7 26.3C277.8 25.7 276.8 25.2 275.7 24.9C273.2 24.1 270.1 24.2 267.3 25.4C265.8 26 264.4 27 263.2 28.2C262 29.4 261 30.8 260.2 32.6C259.5 34.3 259.1 36.2 259.1 38.4C259.1 40.5 259.5 42.4 260.2 44.2C261 45.9 261.9 47.3 263.2 48.5C264.4 49.7 265.8 50.6 267.3 51.2C268.9 51.8 270.4 52.1 272 52.1C273.3 52.1 274.6 51.9 275.6 51.5C276.7 51.2 277.7 50.7 278.6 50.1C279.5 49.5 280.3 48.8 281 48L281.1 47.9V51.5H285.5V14.5H281.1V28.4ZM269 47.1C268 46.6 267 46 266.3 45.2C265.5 44.4 264.9 43.3 264.4 42.2C263.9 41 263.7 39.7 263.7 38.1C263.7 36.6 263.9 35.2 264.4 34.1C264.9 32.9 265.5 31.9 266.3 31.1C267.1 30.3 268 29.7 269 29.3C270.1 28.9 271.2 28.7 272.4 28.7C273.5 28.7 274.6 28.9 275.7 29.4C276.8 29.9 277.8 30.5 278.6 31.4C279.4 32.2 280.1 33.2 280.6 34.4C281.1 35.5 281.4 36.8 281.4 38.4C281.4 39.8 281.1 41.1 280.6 42.3C280.1 43.5 279.4 44.5 278.6 45.3C277.8 46.1 276.8 46.8 275.7 47.2C273.5 48 271.1 48 269 47.1Z" fill="white"/>
</svg>
