<svg width="72" height="72" viewBox="0 0 72 72" fill="none" xmlns="http://www.w3.org/2000/svg">
<path d="M63.5001 20.8747V51.6748C63.5001 51.8748 63.4001 52.0747 63.2001 52.0747L36.5001 67.4747C36.4001 67.5747 36.2001 67.5747 36.0001 67.4747L18.6001 57.4748L23.4001 54.6748C23.6001 54.5748 23.7001 54.5748 23.9001 54.6748L36.3001 61.8747L58.2001 49.1748L58.5001 49.0747V26.3747L40.8001 36.6748L40.5001 36.7747V38.7747L36.2001 41.2747L32.0001 38.7747V33.7747L36.3001 31.2747L38.1001 32.3747L61.0001 19.0747L63.2001 20.3747C63.4001 20.5747 63.5001 20.6747 63.5001 20.8747Z" fill="white"/>
<path d="M46.6 40.075L51.4 37.275V44.875L36.3 53.575L23.8 46.375L11.6 53.375L9.3 52.075C9.1 51.975 9 51.775 9 51.675V20.875C9 20.675 9.1 20.575 9.3 20.475L36 5.075C36.2 4.975 36.4 4.975 36.5 5.075L54 15.175L49.2 17.875C49 17.975 48.8 17.975 48.7 17.875L36.2 10.675L14.4 23.375L14.1 23.475V46.275L21.2 42.175V27.575L36.3 18.875L42.6 22.475L37.9 25.275C37.7 25.375 37.5 25.375 37.4 25.275L36.3 24.675L26.2 30.475V42.075L36.3 47.875L46.4 42.075V40.475C46.3 40.375 46.4 40.175 46.6 40.075Z" fill="white"/>
</svg>
